<svg width="16.000000" height="16.000000" viewBox="0 0 16 16" fill="none" xmlns="http://www.w3.org/2000/svg" xmlns:xlink="http://www.w3.org/1999/xlink">
	<desc>
			Created with Pixso.
	</desc>
	<defs>
		<clipPath id="clip4_12061">
			<rect id="Pinterest" width="16.000000" height="16.000000" fill="white" fill-opacity="0"/>
		</clipPath>
	</defs>
	<rect id="Pinterest" width="16.000000" height="16.000000" fill="#FFFFFF" fill-opacity="0"/>
	<g clip-path="url(#clip4_12061)">
		<path id="Vector" d="M7.02 0.05C4.36 0.34 1.71 2.5 1.6 5.57C1.53 7.45 2.07 8.85 3.85 9.25C4.63 7.88 3.6 7.58 3.44 6.59C2.79 2.54 8.12 -0.23 10.9 2.6C12.83 4.56 11.56 10.59 8.45 9.96C5.47 9.37 9.91 4.57 7.53 3.63C5.6 2.86 4.57 5.97 5.49 7.51C4.95 10.16 3.79 12.67 4.26 16C5.78 14.89 6.29 12.78 6.71 10.58C7.48 11.04 7.88 11.52 8.86 11.6C12.45 11.88 14.46 8.01 13.97 4.44C13.54 1.28 10.38 -0.33 7.02 0.05Z" fill="#FFFFFF" fill-opacity="1.000000" fill-rule="nonzero"/>
	</g>
</svg>
