<svg width="40.000000" height="40.000000" viewBox="0 0 40 40" fill="none" xmlns="http://www.w3.org/2000/svg" xmlns:xlink="http://www.w3.org/1999/xlink">
	<desc>
			Created with Pixso.
	</desc>
	<defs/>
	<rect id="Duotone/Headphones" width="40.000000" height="40.000000" fill="#FFFFFF" fill-opacity="0"/>
	<path id="Vector" d="M35.23 21.25L30.23 21.25C29.57 21.25 28.93 21.51 28.46 21.98C27.99 22.45 27.73 23.08 27.73 23.75L27.73 30C27.73 30.66 27.99 31.29 28.46 31.76C28.93 32.23 29.57 32.5 30.23 32.5L32.73 32.5C33.39 32.5 34.03 32.23 34.5 31.76C34.97 31.29 35.23 30.66 35.23 30L35.23 21.25C35.23 19.26 34.84 17.3 34.08 15.48C33.31 13.65 32.2 11.99 30.79 10.59C29.39 9.2 27.72 8.1 25.88 7.35C24.05 6.6 22.08 6.23 20.1 6.25C18.13 6.23 16.16 6.61 14.33 7.36C12.5 8.1 10.83 9.21 9.43 10.6C8.02 11.99 6.91 13.65 6.15 15.48C5.39 17.31 5 19.27 5 21.25L5 30C5 30.66 5.26 31.29 5.73 31.76C6.2 32.23 6.83 32.5 7.5 32.5L10 32.5C10.66 32.5 11.29 32.23 11.76 31.76C12.23 31.29 12.5 30.66 12.5 30L12.5 23.75C12.5 23.08 12.23 22.45 11.76 21.98C11.29 21.51 10.66 21.25 10 21.25L5 " stroke="#191C1F" stroke-opacity="1.000000" stroke-width="1.500000" stroke-linejoin="round"/>
</svg>
