<svg width="40.000000" height="40.000000" viewBox="0 0 40 40" fill="none" xmlns="http://www.w3.org/2000/svg" xmlns:xlink="http://www.w3.org/1999/xlink">
	<desc>
			Created with Pixso.
	</desc>
	<defs/>
	<rect id="Duotone/Package" width="40.000000" height="40.000000" fill="#FFFFFF" fill-opacity="0"/>
	<path id="Vector" d="M35 12.29C34.99 12.07 34.93 11.85 34.82 11.66C34.71 11.47 34.55 11.31 34.35 11.2L20.6 3.46C20.42 3.36 20.21 3.3 20 3.3C19.78 3.3 19.57 3.36 19.39 3.46L5.64 11.2C5.44 11.31 5.28 11.47 5.17 11.66C5.06 11.85 5 12.07 5 12.29L5 27.7C5 27.92 5.06 28.14 5.17 28.33C5.28 28.52 5.44 28.68 5.64 28.79L19.39 36.53C19.57 36.63 19.78 36.69 20 36.69C20.21 36.69 20.42 36.63 20.6 36.53L34.35 28.79C34.55 28.68 34.71 28.52 34.82 28.33C34.93 28.14 34.99 27.92 35 27.7L35 12.29Z" stroke="#191C1F" stroke-opacity="1.000000" stroke-width="1.500000" stroke-linejoin="round"/>
	<path id="Vector" d="M27.65 23.82L27.65 15.7L12.5 7.34" stroke="#191C1F" stroke-opacity="1.000000" stroke-width="1.500000" stroke-linejoin="round" stroke-linecap="round"/>
	<path id="Vector" d="M34.82 11.65L20.14 20L5.17 11.65" stroke="#191C1F" stroke-opacity="1.000000" stroke-width="1.500000" stroke-linejoin="round" stroke-linecap="round"/>
	<path id="Vector" d="M20.14 20L20 36.68" stroke="#191C1F" stroke-opacity="1.000000" stroke-width="1.500000" stroke-linejoin="round" stroke-linecap="round"/>
</svg>
