<svg width="72.000000" height="72.000000" viewBox="0 0 72 72" fill="none" xmlns="http://www.w3.org/2000/svg" xmlns:xlink="http://www.w3.org/1999/xlink">
	<desc>
			Created with Pixso.
	</desc>
	<defs>
		<clipPath id="clip8_12111">
			<rect id="Frame" width="72.000000" height="72.000000" fill="currentColor" fill-opacity="0"/>
		</clipPath>
	</defs>
	<g clip-path="url(#clip8_12111)">
		<path id="Vector" d="M44.66 46.97C40.49 50.06 34.43 51.7 29.2 51.7C21.87 51.7 15.3 48.99 10.3 44.5C9.92 44.14 10.25 43.66 10.73 43.94C16.11 47.07 22.76 48.94 29.63 48.94C34.25 48.94 39.35 47.98 44.05 45.99C44.76 45.71 45.34 46.47 44.66 46.97Z" fill="currentColor" fill-opacity="1.000000" fill-rule="evenodd"/>
		<path id="Vector" d="M46.4 44.98C45.87 44.3 42.86 44.65 41.53 44.83C41.12 44.88 41.05 44.52 41.42 44.27C43.82 42.58 47.74 43.08 48.2 43.64C48.65 44.19 48.07 48.14 45.82 50C45.47 50.28 45.14 50.13 45.29 49.75C45.8 48.49 46.93 45.68 46.4 44.98Z" fill="currentColor" fill-opacity="1.000000" fill-rule="evenodd"/>
		<path id="Vector" d="M41.6 32.4L41.6 30.75C41.6 30.5 41.78 30.35 42.01 30.35L49.33 30.35C49.56 30.35 49.76 30.53 49.76 30.75L49.76 32.14C49.76 32.37 49.56 32.67 49.21 33.18L45.42 38.59C46.83 38.56 48.32 38.76 49.58 39.47C49.86 39.62 49.94 39.87 49.96 40.1L49.96 41.85C49.96 42.1 49.71 42.38 49.43 42.22C47.18 41.04 44.18 40.91 41.7 42.25C41.45 42.38 41.17 42.12 41.17 41.87L41.17 40.2C41.17 39.95 41.17 39.5 41.45 39.09L45.85 32.8L42.03 32.8C41.8 32.8 41.6 32.62 41.6 32.4ZM14.9 42.58L12.68 42.58C12.47 42.55 12.3 42.4 12.27 42.2L12.27 30.78C12.27 30.55 12.47 30.38 12.7 30.38L14.77 30.38C15 30.38 15.15 30.55 15.18 30.75L15.18 32.25L15.23 32.25C15.76 30.81 16.79 30.12 18.16 30.12C19.55 30.12 20.43 30.81 21.04 32.25C21.57 30.81 22.81 30.12 24.12 30.12C25.06 30.12 26.07 30.5 26.7 31.39C27.4 32.35 27.25 33.74 27.25 34.97L27.25 42.2C27.25 42.43 27.05 42.6 26.82 42.6L24.63 42.6C24.4 42.58 24.22 42.4 24.22 42.2L24.22 36.14C24.22 35.66 24.27 34.44 24.17 33.99C23.99 33.23 23.51 33 22.86 33C22.33 33 21.75 33.36 21.52 33.94C21.29 34.52 21.32 35.48 21.32 36.14L21.32 42.2C21.32 42.43 21.11 42.6 20.89 42.6L18.66 42.6C18.44 42.58 18.26 42.4 18.26 42.2L18.26 36.14C18.26 34.87 18.46 32.98 16.9 32.98C15.3 32.98 15.35 34.8 15.35 36.14L15.35 42.2C15.33 42.4 15.15 42.58 14.9 42.58ZM56.08 30.12C59.39 30.12 61.18 32.95 61.18 36.57C61.18 40.05 59.21 42.83 56.08 42.83C52.84 42.83 51.07 40 51.07 36.46C51.05 32.9 52.84 30.12 56.08 30.12ZM56.08 32.47C54.43 32.47 54.33 34.72 54.33 36.11C54.33 37.5 54.31 40.48 56.05 40.48C57.77 40.48 57.87 38.08 57.87 36.62C57.87 35.66 57.82 34.49 57.54 33.58C57.29 32.78 56.78 32.47 56.08 32.47ZM65.45 42.58L63.23 42.58C63 42.55 62.82 42.38 62.82 42.17L62.82 30.73C62.85 30.53 63.02 30.35 63.25 30.35L65.32 30.35C65.52 30.35 65.68 30.5 65.73 30.68L65.73 32.42L65.78 32.42C66.41 30.86 67.27 30.12 68.81 30.12C69.79 30.12 70.78 30.48 71.41 31.46C71.99 32.37 71.99 33.91 71.99 35.02L71.99 42.22C71.97 42.43 71.79 42.58 71.56 42.58L69.34 42.58C69.14 42.55 68.96 42.4 68.94 42.22L68.94 36.01C68.94 34.75 69.09 32.93 67.55 32.93C67.02 32.93 66.51 33.28 66.26 33.84C65.95 34.54 65.9 35.23 65.9 36.01L65.9 42.17C65.88 42.4 65.68 42.58 65.45 42.58ZM35.77 37.12C35.77 37.98 35.79 38.71 35.36 39.5C35.01 40.13 34.45 40.51 33.82 40.51C32.96 40.51 32.46 39.85 32.46 38.89C32.46 36.99 34.15 36.64 35.77 36.64L35.77 37.12ZM38.01 42.55C37.86 42.68 37.66 42.7 37.48 42.6C36.75 42 36.6 41.69 36.2 41.11C34.98 42.35 34.1 42.73 32.53 42.73C30.66 42.73 29.2 41.57 29.2 39.27C29.2 37.45 30.18 36.24 31.57 35.63C32.79 35.1 34.48 35 35.77 34.85L35.77 34.57C35.77 34.04 35.82 33.41 35.49 32.95C35.21 32.55 34.71 32.37 34.25 32.37C33.39 32.37 32.63 32.8 32.46 33.71C32.41 33.91 32.28 34.11 32.08 34.11L29.93 33.89C29.75 33.84 29.55 33.71 29.6 33.43C30.11 30.81 32.46 30.02 34.58 30.02C35.66 30.02 37.08 30.3 37.94 31.13C39.02 32.14 38.92 33.51 38.92 34.97L38.92 38.43C38.92 39.47 39.35 39.93 39.76 40.51C39.91 40.71 39.93 40.96 39.76 41.09C39.28 41.47 38.47 42.17 38.01 42.55ZM6.59 37.12C6.59 37.98 6.61 38.71 6.18 39.5C5.83 40.13 5.27 40.51 4.64 40.51C3.78 40.51 3.28 39.85 3.28 38.89C3.28 36.99 4.97 36.64 6.59 36.64L6.59 37.12ZM8.81 42.55C8.66 42.68 8.46 42.7 8.28 42.6C7.55 42 7.4 41.69 6.99 41.11C5.78 42.35 4.9 42.73 3.33 42.73C1.46 42.73 0 41.57 0 39.27C0 37.45 0.98 36.24 2.37 35.63C3.58 35.1 5.27 35 6.56 34.85L6.56 34.57C6.56 34.04 6.61 33.41 6.29 32.95C6.01 32.55 5.5 32.37 5.05 32.37C4.19 32.37 3.43 32.8 3.25 33.71C3.2 33.91 3.08 34.11 2.87 34.11L0.73 33.89C0.55 33.84 0.35 33.71 0.4 33.43C0.9 30.81 3.25 30.02 5.38 30.02C6.46 30.02 7.88 30.3 8.74 31.13C9.82 32.14 9.72 33.51 9.72 34.97L9.72 38.43C9.72 39.47 10.15 39.93 10.55 40.51C10.71 40.71 10.73 40.96 10.55 41.09C10.07 41.47 9.27 42.17 8.81 42.55Z" fill="currentColor" fill-opacity="1.000000" fill-rule="evenodd"/>
	</g>
</svg>
