<svg width="72.000000" height="72.000000" viewBox="0 0 72 72" fill="none" xmlns="http://www.w3.org/2000/svg" xmlns:xlink="http://www.w3.org/1999/xlink">
	<desc>
			Created with Pixso.
	</desc>
	<defs>
		<clipPath id="clip8_12107">
			<rect id="google-2015 1" width="72.000000" height="72.000000" fill="white" fill-opacity="0"/>
		</clipPath>
	</defs>
	<rect id="google-2015 1" width="72.000000" height="72.000000" fill="#FFFFFF" fill-opacity="0"/>
	<g clip-path="url(#clip8_12107)">
		<path id="Vector" d="M8.86 24.26L9.5 24.26C11.73 24.31 13.91 25.2 15.48 26.78C14.9 27.37 14.31 27.94 13.74 28.53C12.86 27.73 11.8 27.12 10.64 26.9C8.92 26.54 7.07 26.87 5.64 27.84C4.07 28.87 3 30.61 2.77 32.47C2.52 34.3 3.04 36.23 4.24 37.65C5.38 39.04 7.13 39.91 8.95 39.97C10.64 40.07 12.4 39.55 13.63 38.37C14.6 37.53 15.05 36.27 15.19 35.04C13.19 35.04 11.18 35.05 9.18 35.04L9.18 32.55L17.62 32.55C18.06 35.22 17.43 38.22 15.4 40.13C14.04 41.48 12.17 42.28 10.26 42.43C8.42 42.62 6.51 42.27 4.86 41.37C2.89 40.32 1.32 38.55 0.55 36.46C-0.17 34.54 -0.19 32.37 0.49 30.44C1.11 28.68 2.29 27.12 3.81 26.03C5.27 24.96 7.05 24.37 8.86 24.26Z" fill="#FFFFFF" fill-opacity="1.000000" fill-rule="nonzero"/>
		<path id="Vector" d="M57.31 24.89L59.89 24.89L59.89 42.12C59.03 42.12 58.16 42.13 57.31 42.11C57.32 36.38 57.31 30.63 57.31 24.89Z" fill="#FFFFFF" fill-opacity="1.000000" fill-rule="nonzero"/>
		<path id="Vector" d="M23.37 30.86C24.97 30.56 26.69 30.9 28.01 31.85C29.21 32.69 30.04 34.02 30.29 35.47C30.62 37.15 30.21 38.98 29.12 40.31C27.95 41.79 26.03 42.59 24.16 42.47C22.44 42.37 20.77 41.52 19.76 40.12C18.61 38.57 18.33 36.45 18.96 34.64C19.59 32.69 21.37 31.21 23.37 30.86ZM23.73 33.15C23.08 33.32 22.48 33.7 22.04 34.23C20.87 35.63 20.94 37.91 22.24 39.21C22.97 39.96 24.08 40.31 25.11 40.1C26.06 39.94 26.9 39.3 27.36 38.45C28.15 37.02 27.93 35.04 26.71 33.91C25.92 33.19 24.77 32.89 23.73 33.15Z" fill="#FFFFFF" fill-opacity="1.000000" fill-rule="nonzero"/>
		<path id="Vector" d="M36.18 30.86C38 30.51 39.99 31.02 41.36 32.3C43.58 34.29 43.82 38.02 41.93 40.31C40.78 41.76 38.92 42.55 37.08 42.47C35.33 42.42 33.6 41.55 32.56 40.12C31.39 38.54 31.14 36.36 31.8 34.52C32.47 32.63 34.21 31.2 36.18 30.86ZM36.54 33.15C35.89 33.32 35.28 33.7 34.85 34.21C33.69 35.59 33.74 37.84 34.98 39.15C35.72 39.94 36.86 40.32 37.93 40.1C38.87 39.92 39.72 39.3 40.17 38.45C40.96 37 40.73 35.02 39.5 33.9C38.71 33.18 37.57 32.89 36.54 33.15Z" fill="#FFFFFF" fill-opacity="1.000000" fill-rule="nonzero"/>
		<path id="Vector" d="M47.04 31.56C48.43 30.69 50.27 30.45 51.77 31.2C52.24 31.4 52.63 31.75 53 32.1C53.02 31.78 53 31.44 53.02 31.1C53.83 31.11 54.64 31.1 55.46 31.11L55.46 41.76C55.44 43.36 55.03 45.06 53.87 46.24C52.61 47.53 50.66 47.93 48.91 47.66C47.04 47.38 45.41 46.02 44.68 44.29C45.41 43.94 46.17 43.66 46.92 43.34C47.34 44.33 48.2 45.17 49.27 45.37C50.35 45.56 51.59 45.29 52.29 44.4C53.04 43.48 53.04 42.23 53 41.11C52.45 41.65 51.81 42.13 51.04 42.31C49.36 42.78 47.51 42.2 46.22 41.07C44.91 39.94 44.14 38.19 44.21 36.45C44.25 34.48 45.36 32.59 47.04 31.56ZM49.54 33.1C48.8 33.23 48.11 33.64 47.64 34.2C46.51 35.55 46.51 37.71 47.65 39.04C48.31 39.83 49.36 40.26 50.37 40.15C51.33 40.06 52.21 39.45 52.68 38.62C53.48 37.21 53.34 35.29 52.27 34.06C51.6 33.3 50.54 32.92 49.54 33.1Z" fill="#FFFFFF" fill-opacity="1.000000" fill-rule="nonzero"/>
		<path id="Vector" d="M63 32.18C64.44 30.82 66.68 30.37 68.54 31.08C70.3 31.74 71.43 33.42 72 35.14C69.37 36.23 66.76 37.3 64.14 38.39C64.51 39.08 65.06 39.71 65.81 39.96C66.86 40.33 68.12 40.2 69 39.5C69.35 39.24 69.63 38.89 69.89 38.55C70.56 38.99 71.22 39.43 71.89 39.88C70.94 41.29 69.36 42.28 67.66 42.43C65.77 42.66 63.77 41.94 62.55 40.47C60.54 38.15 60.74 34.26 63 32.18ZM64.29 34.41C63.88 35 63.71 35.72 63.72 36.44C65.47 35.71 67.22 34.99 68.97 34.25C68.68 33.58 67.98 33.16 67.27 33.06C66.12 32.85 64.93 33.47 64.29 34.41Z" fill="#FFFFFF" fill-opacity="1.000000" fill-rule="nonzero"/>
	</g>
</svg>
