<svg width="80.000000" height="80.000000" viewBox="0 0 80 80" fill="none" xmlns="http://www.w3.org/2000/svg" xmlns:xlink="http://www.w3.org/1999/xlink">
	<desc>
			Created with Pixso.
	</desc>
	<defs>
		<filter id="filter_8_12113_dd" x="0.000000" y="0.000000" width="80.000000" height="80.000000" filterUnits="userSpaceOnUse" color-interpolation-filters="sRGB">
			<feFlood flood-opacity="0" result="BackgroundImageFix"/>
			<feColorMatrix in="SourceAlpha" type="matrix" values="0 0 0 0 0 0 0 0 0 0 0 0 0 0 0 0 0 0 127 0" result="hardAlpha"/>
			<feOffset dx="0" dy="4"/>
			<feGaussianBlur stdDeviation="1.33333"/>
			<feComposite in2="hardAlpha" operator="out" k2="-1" k3="1"/>
			<feColorMatrix type="matrix" values="0 0 0 0 0 0 0 0 0 0 0 0 0 0 0 0 0 0 0.25 0"/>
			<feBlend mode="normal" in2="BackgroundImageFix" result="effect_dropShadow_1"/>
			<feColorMatrix in="SourceAlpha" type="matrix" values="0 0 0 0 0 0 0 0 0 0 0 0 0 0 0 0 0 0 127 0" result="hardAlpha"/>
			<feOffset dx="0" dy="4"/>
			<feGaussianBlur stdDeviation="1.33333"/>
			<feComposite in2="hardAlpha" operator="out" k2="-1" k3="1"/>
			<feColorMatrix type="matrix" values="0 0 0 0 0 0 0 0 0 0 0 0 0 0 0 0 0 0 0.25 0"/>
			<feBlend mode="normal" in2="effect_dropShadow_1" result="effect_dropShadow_2"/>
			<feBlend mode="normal" in="SourceGraphic" in2="effect_dropShadow_2" result="shape"/>
		</filter>
		<clipPath id="clip8_12113">
			<rect id="philips 1" width="72.000000" height="72.000000" transform="translate(4.000000 0.000000)" fill="white" fill-opacity="0"/>
		</clipPath>
	</defs>
	<g filter="url(#filter_8_12113_dd)">
		<rect id="philips 1" width="72.000000" height="72.000000" transform="translate(4.000000 0.000000)" fill="#FFFFFF" fill-opacity="0"/>
		<g clip-path="url(#clip8_12113)">
			<path id="Vector" d="M11.33 34.28C11.33 35.92 10.54 37.03 8.53 37.03L7.89 37.03L7.89 31.8C8.12 31.79 8.33 31.79 8.53 31.79C10.43 31.79 11.33 32.69 11.33 34.28ZM9.27 39.3C12.87 39.3 15.14 37.45 15.14 34.22C15.14 30.68 12.71 29.41 8.74 29.41C7.2 29.41 5.35 29.52 4.03 29.68L4.03 42.31L7.89 42.31L7.89 39.3L9.27 39.3ZM61.04 34.28C61.04 35.92 60.24 37.03 58.23 37.03L57.6 37.03L57.6 31.8C57.82 31.79 58.03 31.79 58.23 31.79C60.13 31.79 61.04 32.69 61.04 34.28ZM58.97 39.3C62.57 39.3 64.85 37.45 64.85 34.22C64.85 30.68 62.41 29.41 58.44 29.41C56.91 29.41 55.05 29.52 53.73 29.68L53.73 42.31L57.6 42.31L57.6 39.3L58.97 39.3ZM69.87 32.9C69.87 32.21 70.56 31.9 71.67 31.9C72.89 31.9 74.22 32.16 75.12 32.53L74.8 29.78C73.79 29.57 72.89 29.41 71.25 29.41C68.13 29.41 66.01 30.64 66.01 33.22C66.01 37.66 72.05 36.76 72.05 38.82C72.05 39.62 71.46 40.04 70.03 40.04C68.77 40.04 66.81 39.62 65.64 39.03L66.07 41.94C67.23 42.37 68.82 42.58 70.09 42.58C73.32 42.58 75.96 41.52 75.96 38.35C75.96 34.12 69.87 34.91 69.87 32.9ZM50.82 29.68L46.96 29.68L46.96 42.31L50.82 42.31L50.82 29.68ZM35.15 29.68L31.29 29.68L31.29 42.31L35.15 42.31L35.15 29.68ZM41.87 39.77L41.87 29.68L38.01 29.68L38.01 42.31L45 42.31L45.58 39.77L41.87 39.77ZM28.43 29.68L24.56 29.68L24.56 34.7L20.54 34.7L20.54 29.68L16.68 29.68L16.68 42.31L20.54 42.31L20.54 37.34L24.56 37.34L24.56 42.31L28.43 42.31L28.43 29.68Z" fill="#FFFFFF" fill-opacity="1.000000" fill-rule="nonzero"/>
		</g>
	</g>
</svg>
