<svg width="72.000000" height="72.000000" viewBox="0 0 72 72" fill="none" xmlns="http://www.w3.org/2000/svg" xmlns:xlink="http://www.w3.org/1999/xlink">
	<desc>
			Created with Pixso.
	</desc>
	<defs>
		<clipPath id="clip8_12119">
			<rect id="samsung-4 1" width="72.000000" height="72.000000" fill="white" fill-opacity="0"/>
		</clipPath>
	</defs>
	<rect id="samsung-4 1" width="72.000000" height="72.000000" fill="#FFFFFF" fill-opacity="0"/>
	<g clip-path="url(#clip8_12119)">
		<path id="Vector" d="M62.96 38.69C69.07 35.7 72.44 32.29 71.95 29.47C70.9 23.55 52.94 22.59 34.4 25.88C25.92 27.39 17.8 29.65 12.31 31.89C12.6 31.87 12.81 31.89 12.81 31.89C15.18 31.95 15.04 33.43 15.04 33.43L15.04 34.33L13.15 34.33L13.15 33.72C13.15 33.28 12.62 33.25 12.62 33.25C12.21 33.25 12.12 33.53 12.12 33.53C11.89 33.95 12.28 34.31 12.28 34.31C12.47 34.53 13.46 34.98 13.46 34.98C13.78 35.11 14.29 35.43 14.29 35.43C15.25 36 15.16 37.1 15.16 37.1L15.16 37.83C15.05 39.62 12.57 39.57 12.57 39.57C9.98 39.57 10.04 37.87 10.04 37.87L10.04 36.98L12.06 36.98L12.06 37.6C12.06 38.12 12.56 38.14 12.56 38.14C13.11 38.16 13.16 37.63 13.16 37.63C13.23 37.11 12.66 36.79 12.66 36.79C12.16 36.52 11.65 36.26 11.15 35.99C10.69 35.69 10.5 35.41 10.5 35.41C10.17 34.99 10.19 34.34 10.19 34.34L10.19 33.78C10.19 32.99 10.4 32.77 10.4 32.77C10.41 32.75 10.42 32.74 10.43 32.72C3.66 35.85 -0.49 39.48 0.04 42.46C1.1 48.51 18.04 49.3 37.97 46.23C47.14 44.82 55.13 42.22 61.17 39.53C61.12 39.53 61.08 39.53 61.03 39.53C61.03 39.53 58.59 39.73 58.53 37.76L58.53 33.95C58.53 33.95 58.23 31.85 60.97 31.85C60.97 31.85 62.75 31.79 63.22 32.85C63.22 32.85 63.45 33.13 63.39 34.3L61.49 34.3L61.49 33.7C61.49 33.7 61.49 33.22 61 33.22C61 33.22 60.48 33.24 60.48 33.64L60.48 37.58C60.48 37.58 60.46 38.11 61.04 38.11C61.04 38.11 61.51 38.1 61.51 37.54L61.51 36.41L61 36.41L61 35.35L63.43 35.35L63.43 37.58C63.43 37.58 63.43 38.05 63.23 38.33C63.23 38.33 63.04 38.63 62.96 38.69ZM56.01 39.33L53.78 39.33L51.79 34.93L51.7 34.93L51.81 39.33L49.94 39.33L49.94 32.14L52.24 32.14L54.17 36.5L54.25 36.5L54.11 32.13L56.01 32.13L56.01 39.33ZM44.26 37.54C44.26 38.15 44.84 38.12 44.84 38.12C45.39 38.12 45.36 37.52 45.36 37.52L45.36 32.1L47.37 32.1L47.37 37.59C47.37 39.57 44.87 39.54 44.87 39.54C41.99 39.54 42.2 37.5 42.2 37.5L42.2 32.1L44.26 32.1L44.26 37.54ZM37.95 34.33L37.95 33.72C37.95 33.28 37.42 33.25 37.42 33.25C37.01 33.25 36.92 33.53 36.92 33.53C36.69 33.95 37.08 34.31 37.08 34.31C37.27 34.53 38.26 34.98 38.26 34.98C38.58 35.11 39.09 35.43 39.09 35.43C40.05 36 39.97 37.1 39.97 37.1L39.97 37.83C39.85 39.62 37.37 39.57 37.37 39.57C34.78 39.57 34.84 37.87 34.84 37.87L34.84 36.98L36.86 36.98L36.86 37.6C36.86 38.12 37.36 38.14 37.36 38.14C37.91 38.16 37.96 37.63 37.96 37.63C38.03 37.11 37.46 36.79 37.46 36.79C36.96 36.52 36.46 36.26 35.96 35.99C35.49 35.69 35.3 35.41 35.3 35.41C34.97 34.99 34.99 34.34 34.99 34.34L34.99 33.77C34.99 32.99 35.2 32.77 35.2 32.77C35.74 31.76 37.61 31.89 37.61 31.89C39.98 31.95 39.83 33.43 39.83 33.43L39.84 34.33L37.95 34.33ZM28.01 32.13L28.62 36.07L28.77 36.07L29.4 32.13L32.53 32.13L32.73 39.32L30.85 39.32L30.81 33.91L30.68 33.91L29.7 39.32L27.73 39.32L26.74 33.91L26.59 33.91L26.57 39.32L24.7 39.32L24.85 32.13L28.01 32.13ZM20.67 39.32L19.93 33.74L19.77 33.74L19.03 39.32L17.02 39.32L18.26 32.13L21.44 32.13L22.69 39.32L20.67 39.32Z" fill="#FFFFFF" fill-opacity="1.000000" fill-rule="evenodd"/>
	</g>
</svg>
