<svg width="72.000000" height="72.000000" viewBox="0 0 72 72" fill="none" xmlns="http://www.w3.org/2000/svg" xmlns:xlink="http://www.w3.org/1999/xlink">
	<desc>
			Created with Pixso.
	</desc>
	<defs>
		<clipPath id="clip8_12116">
			<rect id="toshiba-1 1" width="72.000000" height="72.000000" fill="white" fill-opacity="0"/>
		</clipPath>
	</defs>
	<rect id="toshiba-1 1" width="72.000000" height="72.000000" fill="#FFFFFF" fill-opacity="0"/>
	<g clip-path="url(#clip8_12116)">
		<path id="Vector" d="M6.44 41.24L3.66 41.24L3.66 33.28L0.45 33.28L0.45 30.89L9.82 30.89L9.82 33.28L6.44 33.28L6.44 41.24ZM11.14 33.62C11.56 31.18 13.73 30.83 15.81 30.83C19.38 30.83 20.63 31.71 20.63 35.45C20.63 39.28 20.54 41.32 15.89 41.32C14.04 41.32 11.83 41.18 11.21 39.05C11.01 38.35 11 37.62 11 36.89L11 36.13C11 35.31 11 34.44 11.14 33.62ZM13.84 36.71C13.84 38.17 13.87 38.94 15.59 38.94C17.48 38.94 17.78 38.48 17.78 36.71C17.78 36.21 17.79 35.7 17.79 35.2C17.79 33.82 17.58 33.2 16.09 33.2C13.91 33.2 13.88 33.42 13.84 36.09L13.84 36.71L13.84 36.71ZM28.75 34.12C28.75 33.06 28.38 32.92 27.38 32.92L27.1 32.92C26.37 32.92 25.6 32.95 25.6 33.87C25.6 34.5 25.78 34.8 26.45 34.85C28.86 35.05 31.7 34.57 31.7 37.9C31.7 38.79 31.7 39.91 30.97 40.53C30.11 41.24 28.93 41.3 27.85 41.3L27.17 41.3C24.31 41.3 22.82 41.18 22.82 37.89L25.46 37.89C25.46 38.66 25.64 39.13 26.51 39.13L27.71 39.13C28.41 39.13 28.97 39.04 28.97 38.1C28.97 37.19 28.42 37.19 27.65 37.14C24.65 36.94 22.84 37.22 22.84 33.78C22.84 31.98 23.55 31.03 25.4 30.89C26 30.84 26.61 30.81 27.21 30.81C29.62 30.81 31.4 30.86 31.4 33.79C31.4 33.9 31.39 34.01 31.39 34.12L28.75 34.12L28.75 34.12ZM43.02 41.24L40.24 41.24L40.24 37.17L36.64 37.17L36.64 41.24L33.86 41.24L33.86 30.89L36.64 30.89L36.64 34.8L40.24 34.8L40.24 30.89L43.02 30.89L43.02 41.24ZM48.45 41.24L45.67 41.24L45.67 30.89L48.45 30.89L48.45 41.24ZM51.11 30.89L56.74 30.89C58.62 30.89 59.83 31.4 59.83 33.53C59.83 34.72 59.72 35.68 58.22 35.93L58.22 36.02C59.61 36.15 60 36.89 60 38.26C60 40.59 59.23 41.24 56.79 41.24L51.11 41.24L51.11 30.89ZM55.66 35.03C56.42 35 57.08 35.09 57.08 34.15C57.08 33.4 56.88 33.17 56.14 33.17L53.89 33.17L53.89 35.03L55.66 35.03ZM55.74 38.96C56.6 38.96 57.24 38.94 57.24 37.93C57.24 36.97 56.79 36.94 55.92 36.94L53.89 36.94L53.89 38.96L55.74 38.96ZM68.57 41.24L71.39 41.24L68.24 30.89L64.03 30.89L60.93 41.24L63.82 41.24L64.41 39.16L67.97 39.16L68.57 41.24ZM64.98 37.16L66.18 32.95L67.39 37.16L64.98 37.16Z" fill="#FFFFFF" fill-opacity="1.000000" fill-rule="evenodd"/>
	</g>
</svg>
