<svg width="20.000000" height="20.000000" viewBox="0 0 20 20" fill="none" xmlns="http://www.w3.org/2000/svg" xmlns:xlink="http://www.w3.org/1999/xlink">
	<desc>
			Created with Pixso.
	</desc>
	<defs>
		<clipPath id="clip10_15328">
			<rect id="Apple" width="20.000000" height="20.000000" fill="white" fill-opacity="0"/>
		</clipPath>
	</defs>
	<rect id="Apple" width="20.000000" height="20.000000" fill="currentColor" fill-opacity="0"/>
	<g clip-path="url(#clip10_15328)">
		<path id="Vector" d="M15.63 10.53C15.62 8.9 16.36 7.66 17.85 6.75C17.02 5.56 15.75 4.9 14.08 4.77C12.5 4.65 10.77 5.69 10.14 5.69C9.47 5.69 7.94 4.82 6.74 4.82C4.26 4.85 1.62 6.8 1.62 10.74C1.62 11.91 1.83 13.11 2.26 14.36C2.83 15.99 4.88 20 7.03 19.93C8.15 19.9 8.94 19.13 10.4 19.13C11.82 19.13 12.55 19.93 13.81 19.93C15.97 19.9 17.83 16.26 18.37 14.62C15.47 13.25 15.63 10.61 15.63 10.53ZM13.11 3.22C14.32 1.78 14.21 0.47 14.18 0C13.1 0.06 11.86 0.73 11.15 1.55C10.37 2.43 9.91 3.52 10.01 4.75C11.17 4.84 12.23 4.24 13.11 3.22Z" fill="#000000" fill-opacity="1.000000" fill-rule="nonzero"/>
	</g>
</svg>
