<svg width="32.000000" height="32.000000" viewBox="0 0 32 32" fill="none" xmlns="http://www.w3.org/2000/svg" xmlns:xlink="http://www.w3.org/1999/xlink">
	<desc>
			Created with Pixso.
	</desc>
	<defs>
		<clipPath id="clip8_10976">
			<rect id="Apple---Negative 1" width="32.000000" height="32.000000" transform="translate(0.000000 -0.500000)" fill="white" fill-opacity="0"/>
		</clipPath>
	</defs>
	<rect id="Apple---Negative 1" width="32.000000" height="32.000000" transform="translate(0.000000 -0.500000)" fill="#FFFFFF" fill-opacity="0"/>
	<g clip-path="url(#clip8_10976)">
		<path id="Vector" d="M29.05 24.43C28.58 25.52 28.01 26.56 27.33 27.53C26.43 28.82 25.68 29.71 25.11 30.21C24.23 31.02 23.28 31.44 22.27 31.46C21.54 31.46 20.66 31.25 19.64 30.83C18.61 30.41 17.66 30.2 16.8 30.2C15.9 30.2 14.93 30.41 13.89 30.83C12.85 31.25 12.01 31.47 11.37 31.49C10.4 31.53 9.43 31.11 8.46 30.21C7.84 29.66 7.07 28.74 6.14 27.43C5.15 26.03 4.33 24.41 3.69 22.56C3.01 20.57 2.66 18.63 2.66 16.76C2.66 14.62 3.13 12.77 4.05 11.22C4.78 9.97 5.75 8.99 6.97 8.27C8.16 7.55 9.52 7.17 10.91 7.16C11.68 7.16 12.7 7.39 13.96 7.87C15.21 8.34 16.02 8.58 16.37 8.58C16.64 8.58 17.53 8.3 19.05 7.74C20.49 7.22 21.7 7.01 22.7 7.09C25.39 7.31 27.41 8.37 28.76 10.28C26.35 11.74 25.16 13.78 25.18 16.41C25.2 18.45 25.94 20.15 27.4 21.5C28.06 22.12 28.8 22.61 29.62 22.95C29.44 23.45 29.26 23.94 29.05 24.43ZM22.88 0.14C22.88 1.74 22.29 3.23 21.13 4.61C19.72 6.26 18.02 7.21 16.17 7.06C16.15 6.86 16.14 6.65 16.14 6.45C16.14 4.91 16.81 3.27 17.99 1.93C18.59 1.25 19.34 0.68 20.26 0.23C21.17 -0.22 22.03 -0.46 22.84 -0.5C22.87 -0.29 22.88 -0.08 22.88 0.14L22.88 0.14Z" fill="#FFFFFF" fill-opacity="1.000000" fill-rule="nonzero"/>
	</g>
</svg>
