<svg width="20.125000" height="20.000000" viewBox="0 0 20.125 20" fill="none" xmlns="http://www.w3.org/2000/svg" xmlns:xlink="http://www.w3.org/1999/xlink">
	<desc>
			Created with Pixso.
	</desc>
	<defs/>
	<rect id="Property 1=None" width="20.000000" height="20.000000" transform="translate(0.125000 0.000000)" fill="currentColor" fill-opacity="0"/>
	<path id="Vector" d="M7.62 16.87C7.62 17.56 7.06 18.12 6.37 18.12C5.68 18.12 5.12 17.56 5.12 16.87C5.12 16.18 5.68 15.62 6.37 15.62C7.06 15.62 7.62 16.18 7.62 16.87Z" fill="currentColor" fill-opacity="1.000000" fill-rule="evenodd"/>
	<path id="Vector" d="M6.37 18.62C6.13 18.62 5.91 18.57 5.69 18.48C5.48 18.39 5.29 18.27 5.13 18.11C4.97 17.95 4.85 17.76 4.76 17.55C4.67 17.33 4.62 17.11 4.62 16.87C4.62 16.63 4.67 16.41 4.76 16.19C4.85 15.98 4.97 15.79 5.13 15.63C5.29 15.47 5.48 15.35 5.69 15.26C5.91 15.17 6.13 15.12 6.37 15.12C6.61 15.12 6.83 15.17 7.05 15.26C7.26 15.35 7.45 15.47 7.61 15.63C7.77 15.79 7.89 15.98 7.98 16.19C8.07 16.41 8.12 16.63 8.12 16.87C8.12 17.11 8.07 17.33 7.98 17.55C7.89 17.76 7.77 17.95 7.61 18.11C7.45 18.27 7.26 18.39 7.05 18.48C6.83 18.57 6.61 18.62 6.37 18.62L6.37 18.62ZM6.37 17.62C6.58 17.62 6.75 17.55 6.9 17.4C7.05 17.25 7.12 17.08 7.12 16.87C7.12 16.66 7.05 16.49 6.9 16.34C6.75 16.19 6.58 16.12 6.37 16.12C6.16 16.12 5.99 16.19 5.84 16.34C5.69 16.49 5.62 16.66 5.62 16.87C5.62 17.08 5.69 17.25 5.84 17.4C5.99 17.55 6.16 17.62 6.37 17.62L6.37 17.62Z" fill="currentColor" fill-opacity="1.000000" fill-rule="evenodd"/>
	<path id="Vector" d="M15.75 16.87C15.75 17.56 15.19 18.12 14.5 18.12C13.8 18.12 13.25 17.56 13.25 16.87C13.25 16.18 13.8 15.62 14.5 15.62C15.19 15.62 15.75 16.18 15.75 16.87Z" fill="currentColor" fill-opacity="1.000000" fill-rule="evenodd"/>
	<path id="Vector" d="M3.42 5.62L17.44 5.62L15.38 12.84C15.3 13.1 15.15 13.33 14.93 13.5C14.71 13.66 14.45 13.75 14.17 13.75L6.69 13.75C6.42 13.75 6.15 13.66 5.94 13.5C5.72 13.33 5.56 13.1 5.49 12.84L2.66 2.95C2.62 2.82 2.54 2.7 2.43 2.62C2.33 2.54 2.19 2.49 2.06 2.5L0.75 2.5" stroke="currentColor" stroke-opacity="1.000000" stroke-width="1.500000" stroke-linejoin="round" stroke-linecap="round"/>
</svg>
