<svg width="24.000000" height="24.000000" viewBox="0 0 24 24" fill="none" xmlns="http://www.w3.org/2000/svg" xmlns:xlink="http://www.w3.org/1999/xlink">
	<desc>
			Created with Pixso.
	</desc>
	<defs/>
	<rect id="Duotone/ArrowsCounterClockwise" width="24.000000" height="24.000000" fill="#FFFFFF" fill-opacity="0"/>
	<path id="Vector" d="M7.48 9.34L2.98 9.34L2.98 " stroke="#5F6C72" stroke-opacity="1.000000" stroke-width="1.500000" stroke-linejoin="round" stroke-linecap="round"/>
	<path id="Vector" d="M17.83 6.16C17.06 5.4 16.15 4.79 15.15 4.37C14.15 3.96 13.08 3.75 12 3.75C10.91 3.75 9.84 3.96 8.84 4.37C7.84 4.79 6.93 5.4 6.16 6.16L2.98 " stroke="#5F6C72" stroke-opacity="1.000000" stroke-width="1.500000" stroke-linejoin="round" stroke-linecap="round"/>
	<path id="Vector" d="M16.51 14.65L21.01 14.65L21.01 " stroke="#5F6C72" stroke-opacity="1.000000" stroke-width="1.500000" stroke-linejoin="round" stroke-linecap="round"/>
	<path id="Vector" d="M6.16 17.83C6.93 18.59 7.84 19.2 8.84 19.62C9.84 20.03 10.91 20.24 12 20.24C13.08 20.24 14.15 20.03 15.15 19.62C16.15 19.2 17.06 18.59 17.83 17.83L21.01 " stroke="#5F6C72" stroke-opacity="1.000000" stroke-width="1.500000" stroke-linejoin="round" stroke-linecap="round"/>
</svg>
