<svg width="20.000000" height="20.000000" viewBox="0 0 20 20" fill="none" xmlns="http://www.w3.org/2000/svg" xmlns:xlink="http://www.w3.org/1999/xlink">
	<desc>
			Created with Pixso.
	</desc>
	<defs/>
	<rect id="Regular/House" width="20.000000" height="20.000000" fill="#FFFFFF" fill-opacity="0"/>
	<path id="Vector" d="M11.87 12.5C11.87 12.33 11.8 12.17 11.69 12.05C11.57 11.94 11.41 11.87 11.25 11.87L8.75 11.87C8.58 11.87 8.42 11.94 8.3 12.05C8.19 12.17 8.12 12.33 8.12 12.5L8.12 16.25C8.12 16.41 8.05 16.57 7.94 16.69C7.82 16.8 7.66 16.87 7.5 16.87L3.75 16.87C3.58 16.87 3.42 16.8 3.3 16.69C3.19 16.57 3.12 16.41 3.12 16.25L3.12 9.02C3.12 8.93 3.14 8.85 3.17 8.77C3.21 8.69 3.26 8.62 3.32 8.56L9.57 2.88C9.69 2.77 9.84 2.71 10 2.71C10.15 2.71 10.3 2.77 10.42 2.88L16.67 8.56C16.73 8.62 16.78 8.69 16.82 8.77C16.85 8.85 16.87 8.93 16.87 9.02L16.87 16.25C16.87 16.41 16.8 16.57 16.69 16.69C16.57 16.8 16.41 16.87 16.25 16.87L12.5 16.87C12.33 16.87 12.17 16.8 12.05 16.69C11.94 16.57 11.87 16.41 11.87 16.25L11.87 12.5Z" stroke="#5F6C72" stroke-opacity="1.000000" stroke-width="1.500000" stroke-linejoin="round"/>
</svg>
