<svg width="20.000000" height="20.000000" viewBox="0 0 16 16" fill="none" xmlns="http://www.w3.org/2000/svg" xmlns:xlink="http://www.w3.org/1999/xlink">
	<desc>
			Created with Pixso.
	</desc>
	<defs/>
	<rect id="Regular/Star" width="20.000000" height="20.000000" fill="#FFFFFF" fill-opacity="0"/>
	<path id="Vector" d="M8.27 11.91L11.42 13.91C11.83 14.17 12.33 13.79 12.21 13.32L11.3 9.73C11.27 9.63 11.27 9.53 11.31 9.43C11.34 9.33 11.4 9.25 11.48 9.18L14.3 6.83C14.67 6.52 14.48 5.9 14 5.87L10.31 5.63C10.21 5.63 10.12 5.59 10.04 5.53C9.95 5.47 9.89 5.39 9.86 5.3L8.48 1.83C8.45 1.73 8.38 1.65 8.29 1.58C8.21 1.52 8.1 1.49 8 1.49C7.89 1.49 7.78 1.52 7.7 1.58C7.61 1.65 7.54 1.73 7.51 1.83L6.13 5.3C6.1 5.39 6.04 5.47 5.95 5.53C5.87 5.59 5.78 5.63 5.68 5.63L1.99 5.87C1.51 5.9 1.32 6.52 1.69 6.83L4.51 9.18C4.59 9.25 4.65 9.33 4.68 9.43C4.72 9.53 4.72 9.63 4.7 9.73L3.85 13.06C3.71 13.62 4.31 14.08 4.79 13.77L7.72 11.91C7.8 11.86 7.9 11.83 8 11.83C8.09 11.83 8.19 11.86 8.27 11.91Z" fill="currentColor" fill-opacity="1.000000" fill-rule="nonzero"/>
</svg>
