<svg width="108.000000" height="20.000000" viewBox="0 0 108 20" fill="none" xmlns="http://www.w3.org/2000/svg" xmlns:xlink="http://www.w3.org/1999/xlink">
	<desc>
			Created with Pixso.
	</desc>
	<defs/>
	<rect id="Regular/Star" width="20.000000" height="20.000000" fill="#FFFFFF" fill-opacity="0"/>
	<path id="Vector" d="M10.34 14.89L14.28 17.39C14.78 17.71 15.41 17.24 15.26 16.65L14.12 12.17C14.09 12.04 14.09 11.91 14.13 11.79C14.17 11.67 14.25 11.56 14.35 11.48L17.88 8.53C18.34 8.15 18.1 7.38 17.5 7.34L12.89 7.04C12.77 7.04 12.65 6.99 12.55 6.92C12.44 6.84 12.37 6.74 12.32 6.62L10.6 2.29C10.56 2.17 10.48 2.06 10.37 1.98C10.26 1.91 10.13 1.87 10 1.87C9.86 1.87 9.73 1.91 9.62 1.98C9.51 2.06 9.43 2.17 9.39 2.29L7.67 6.62C7.62 6.74 7.55 6.84 7.44 6.92C7.34 6.99 7.22 7.04 7.1 7.04L2.49 7.34C1.89 7.38 1.65 8.15 2.11 8.53L5.64 11.48C5.74 11.56 5.82 11.67 5.86 11.79C5.9 11.91 5.9 12.04 5.87 12.17L4.82 16.32C4.64 17.03 5.39 17.6 5.99 17.21L9.65 14.89C9.75 14.83 9.87 14.79 10 14.79C10.12 14.79 10.24 14.83 10.34 14.89Z" fill="currentColor" fill-opacity="1.000000" fill-rule="nonzero"/>
	<rect id="Regular/Star" width="20.000000" height="20.000000" transform="translate(22.000000 0.000000)" fill="#FFFFFF" fill-opacity="0"/>
	<path id="Vector" d="M32.34 14.89L36.28 17.39C36.78 17.71 37.41 17.24 37.26 16.65L36.12 12.17C36.09 12.04 36.09 11.91 36.13 11.79C36.17 11.67 36.25 11.56 36.35 11.48L39.88 8.53C40.34 8.15 40.1 7.38 39.5 7.34L34.89 7.04C34.77 7.04 34.65 6.99 34.55 6.92C34.44 6.84 34.37 6.74 34.32 6.62L32.6 2.29C32.56 2.17 32.48 2.06 32.37 1.98C32.26 1.91 32.13 1.87 32 1.87C31.86 1.87 31.73 1.91 31.62 1.98C31.51 2.06 31.43 2.17 31.39 2.29L29.67 6.62C29.62 6.74 29.55 6.84 29.44 6.92C29.34 6.99 29.22 7.04 29.1 7.04L24.49 7.34C23.89 7.38 23.65 8.15 24.11 8.53L27.64 11.48C27.74 11.56 27.82 11.67 27.86 11.79C27.9 11.91 27.9 12.04 27.87 12.17L26.82 16.32C26.64 17.03 27.39 17.6 27.99 17.21L31.65 14.89C31.75 14.83 31.87 14.79 32 14.79C32.12 14.79 32.24 14.83 32.34 14.89Z" fill="currentColor" fill-opacity="1.000000" fill-rule="nonzero"/>
	<rect id="Regular/Star" width="20.000000" height="20.000000" transform="translate(44.000000 0.000000)" fill="#FFFFFF" fill-opacity="0"/>
	<path id="Vector" d="M54.34 14.89L58.28 17.39C58.78 17.71 59.41 17.24 59.26 16.65L58.12 12.17C58.09 12.04 58.09 11.91 58.13 11.79C58.17 11.67 58.25 11.56 58.35 11.48L61.88 8.53C62.34 8.15 62.1 7.38 61.5 7.34L56.89 7.04C56.77 7.04 56.65 6.99 56.55 6.92C56.44 6.84 56.37 6.74 56.32 6.62L54.6 2.29C54.56 2.17 54.48 2.06 54.37 1.98C54.26 1.91 54.13 1.87 54 1.87C53.86 1.87 53.73 1.91 53.62 1.98C53.51 2.06 53.43 2.17 53.39 2.29L51.67 6.62C51.62 6.74 51.55 6.84 51.44 6.92C51.34 6.99 51.22 7.04 51.1 7.04L46.49 7.34C45.89 7.38 45.65 8.15 46.11 8.53L49.64 11.48C49.74 11.56 49.82 11.67 49.86 11.79C49.9 11.91 49.9 12.04 49.87 12.17L48.82 16.32C48.64 17.03 49.39 17.6 49.99 17.21L53.65 14.89C53.75 14.83 53.87 14.79 54 14.79C54.12 14.79 54.24 14.83 54.34 14.89Z" fill="currentColor" fill-opacity="1.000000" fill-rule="nonzero"/>
	<rect id="Regular/Star" width="20.000000" height="20.000000" transform="translate(66.000000 0.000000)" fill="#FFFFFF" fill-opacity="0"/>
	<path id="Vector" d="M76.34 14.89L80.28 17.39C80.78 17.71 81.41 17.24 81.26 16.65L80.12 12.17C80.09 12.04 80.09 11.91 80.13 11.79C80.17 11.67 80.25 11.56 80.35 11.48L83.88 8.53C84.34 8.15 84.1 7.38 83.5 7.34L78.89 7.04C78.77 7.04 78.65 6.99 78.55 6.92C78.44 6.84 78.37 6.74 78.32 6.62L76.6 2.29C76.56 2.17 76.48 2.06 76.37 1.98C76.26 1.91 76.13 1.87 76 1.87C75.86 1.87 75.73 1.91 75.62 1.98C75.51 2.06 75.43 2.17 75.39 2.29L73.67 6.62C73.62 6.74 73.55 6.84 73.44 6.92C73.34 6.99 73.22 7.04 73.1 7.04L68.49 7.34C67.89 7.38 67.65 8.15 68.11 8.53L71.64 11.48C71.74 11.56 71.82 11.67 71.86 11.79C71.9 11.91 71.9 12.04 71.87 12.17L70.82 16.32C70.64 17.03 71.39 17.6 71.99 17.21L75.65 14.89C75.75 14.83 75.87 14.79 76 14.79C76.12 14.79 76.24 14.83 76.34 14.89Z" fill="currentColor" fill-opacity="1.000000" fill-rule="nonzero"/>
	<rect id="Regular/Star" width="20.000000" height="20.000000" transform="translate(88.000000 0.000000)" fill="#FFFFFF" fill-opacity="0"/>
	<path id="Vector" d="M98.34 14.89L102.28 17.39C102.78 17.71 103.41 17.24 103.26 16.65L102.12 12.17C102.09 12.04 102.09 11.91 102.13 11.79C102.17 11.67 102.25 11.56 102.35 11.48L105.88 8.53C106.34 8.15 106.1 7.38 105.5 7.34L100.89 7.04C100.77 7.04 100.65 6.99 100.55 6.92C100.44 6.84 100.37 6.74 100.32 6.62L98.6 2.29C98.56 2.17 98.48 2.06 98.37 1.98C98.26 1.91 98.13 1.87 98 1.87C97.86 1.87 97.73 1.91 97.62 1.98C97.51 2.06 97.43 2.17 97.39 2.29L95.67 6.62C95.62 6.74 95.55 6.84 95.44 6.92C95.34 6.99 95.22 7.04 95.1 7.04L90.49 7.34C89.89 7.38 89.65 8.15 90.11 8.53L93.64 11.48C93.74 11.56 93.82 11.67 93.86 11.79C93.9 11.91 93.9 12.04 93.87 12.17L92.82 16.32C92.64 17.03 93.39 17.6 93.99 17.21L97.65 14.89C97.75 14.83 97.87 14.79 98 14.79C98.12 14.79 98.24 14.83 98.34 14.89Z" fill="currentColor" fill-opacity="1.000000" fill-rule="nonzero"/>
</svg>
