<?xml version="1.0" encoding="UTF-8"?>
<svg xmlns="http://www.w3.org/2000/svg" xmlns:xlink="http://www.w3.org/1999/xlink" width="20px" height="20px" viewBox="0 0 20 20" version="1.1">
<g id="surface1">
<path style=" stroke:none;fill-rule:nonzero;fill:rgb(60%,60%,60%);fill-opacity:1;" d="M 10 0 C 12.761719 0 15.261719 1.121094 17.070312 2.929688 C 18.878906 4.738281 20 7.238281 20 10 C 20 12.761719 18.878906 15.261719 17.070312 17.070312 C 15.261719 18.878906 12.761719 20 10 20 C 7.238281 20 4.738281 18.878906 2.929688 17.070312 C 1.121094 15.261719 0 12.761719 0 10 C 0 7.238281 1.121094 4.738281 2.929688 2.929688 C 4.738281 1.121094 7.238281 0 10 0 Z M 10 0 "/>
<path style=" stroke:none;fill-rule:nonzero;fill:rgb(100%,100%,100%);fill-opacity:1;" d="M 10 0.761719 C 12.550781 0.761719 14.863281 1.796875 16.53125 3.46875 L 16.574219 3.511719 C 18.222656 5.179688 19.238281 7.472656 19.238281 10 C 19.238281 12.550781 18.203125 14.863281 16.53125 16.53125 L 16.484375 16.574219 C 14.816406 18.222656 12.523438 19.238281 10 19.238281 C 7.453125 19.238281 5.140625 18.203125 3.46875 16.53125 C 1.796875 14.859375 0.761719 12.550781 0.761719 10 C 0.761719 7.449219 1.796875 5.136719 3.464844 3.46875 C 5.136719 1.796875 7.449219 0.761719 10 0.761719 Z M 10 0.761719 "/>
<path style=" stroke:none;fill-rule:nonzero;fill:rgb(69.803922%,13.333333%,20.392157%);fill-opacity:1;" d="M 10 1.546875 C 11.542969 1.546875 12.988281 1.960938 14.234375 2.679688 L 5.765625 2.679688 C 7.011719 1.960938 8.457031 1.546875 10 1.546875 Z M 16.085938 4.136719 C 16.445312 4.507812 16.769531 4.910156 17.054688 5.339844 L 2.945312 5.339844 C 3.230469 4.90625 3.554688 4.503906 3.914062 4.136719 Z M 17.820312 6.789062 C 17.984375 7.179688 18.113281 7.582031 18.214844 8 L 1.785156 8 C 1.886719 7.582031 2.019531 7.183594 2.179688 6.789062 Z M 18.433594 9.449219 C 18.445312 9.632812 18.453125 9.816406 18.453125 10 C 18.453125 10.222656 18.445312 10.441406 18.429688 10.65625 L 1.570312 10.65625 C 1.554688 10.441406 1.546875 10.21875 1.546875 10 C 1.546875 9.816406 1.554688 9.632812 1.566406 9.449219 Z M 18.1875 12.109375 C 18.082031 12.519531 17.945312 12.925781 17.777344 13.316406 L 2.222656 13.316406 C 2.058594 12.925781 1.917969 12.519531 1.8125 12.109375 Z M 16.980469 14.765625 C 16.683594 15.203125 16.347656 15.609375 15.972656 15.980469 L 4.027344 15.980469 C 3.65625 15.609375 3.316406 15.203125 3.019531 14.765625 Z M 14.039062 17.425781 C 12.835938 18.082031 11.457031 18.453125 10 18.453125 C 8.535156 18.453125 7.160156 18.082031 5.960938 17.425781 Z M 14.039062 17.425781 "/>
<path style=" stroke:none;fill-rule:nonzero;fill:rgb(23.529412%,23.137255%,43.137255%);fill-opacity:1;" d="M 10.476562 1.558594 L 10.476562 10.71875 L 1.578125 10.71875 C 1.558594 10.480469 1.546875 10.242188 1.546875 10 C 1.546875 5.332031 5.332031 1.546875 10 1.546875 C 10.160156 1.546875 10.316406 1.550781 10.476562 1.558594 Z M 10.476562 1.558594 "/>
<path style=" stroke:none;fill-rule:nonzero;fill:rgb(100%,100%,100%);fill-opacity:1;" d="M 1.984375 7.308594 L 2.023438 7.425781 L 1.960938 7.378906 Z M 9.378906 9.257812 L 9.691406 10.21875 L 8.875 9.625 L 9.882812 9.625 L 9.066406 10.21875 Z M 9.378906 7.394531 L 9.691406 8.355469 L 8.875 7.761719 L 9.882812 7.761719 L 9.066406 8.355469 Z M 9.378906 5.53125 L 9.691406 6.496094 L 8.875 5.898438 L 9.882812 5.898438 L 9.066406 6.496094 Z M 9.378906 3.671875 L 9.691406 4.632812 L 8.875 4.039062 L 9.882812 4.039062 L 9.066406 4.632812 Z M 9.378906 1.808594 L 9.691406 2.769531 L 8.875 2.175781 L 9.882812 2.175781 L 9.066406 2.769531 Z M 8.28125 8.324219 L 8.59375 9.289062 L 7.777344 8.691406 L 8.789062 8.691406 L 7.972656 9.289062 Z M 8.28125 6.464844 L 8.59375 7.425781 L 7.777344 6.832031 L 8.789062 6.832031 L 7.972656 7.425781 Z M 8.28125 4.601562 L 8.59375 5.5625 L 7.777344 4.96875 L 8.789062 4.96875 L 7.972656 5.5625 Z M 8.28125 2.738281 L 8.59375 3.703125 L 7.777344 3.105469 L 8.789062 3.105469 L 7.972656 3.703125 Z M 7.1875 9.257812 L 7.503906 10.21875 L 6.683594 9.625 L 7.695312 9.625 L 6.875 10.21875 Z M 7.1875 7.394531 L 7.503906 8.355469 L 6.683594 7.761719 L 7.695312 7.761719 L 6.875 8.355469 Z M 7.1875 5.53125 L 7.503906 6.496094 L 6.683594 5.898438 L 7.695312 5.898438 L 6.875 6.496094 Z M 7.1875 3.671875 L 7.503906 4.632812 L 6.683594 4.039062 L 7.695312 4.039062 L 6.875 4.632812 Z M 7.253906 2.003906 L 7.503906 2.769531 L 6.722656 2.203125 L 6.796875 2.175781 L 7.695312 2.175781 L 6.875 2.769531 L 7.109375 2.054688 Z M 6.09375 8.324219 L 6.40625 9.289062 L 5.585938 8.691406 L 6.597656 8.691406 L 5.777344 9.289062 Z M 6.09375 6.464844 L 6.40625 7.425781 L 5.585938 6.832031 L 6.597656 6.832031 L 5.777344 7.425781 Z M 6.09375 4.601562 L 6.40625 5.5625 L 5.585938 4.96875 L 6.597656 4.96875 L 5.777344 5.5625 Z M 6.09375 2.738281 L 6.40625 3.703125 L 5.585938 3.105469 L 6.597656 3.105469 L 5.777344 3.703125 Z M 5 9.257812 L 5.308594 10.21875 L 4.496094 9.625 L 5.507812 9.625 L 4.6875 10.21875 Z M 5 7.394531 L 5.308594 8.355469 L 4.496094 7.761719 L 5.507812 7.761719 L 4.6875 8.355469 Z M 5 5.53125 L 5.308594 6.496094 L 4.496094 5.898438 L 5.507812 5.898438 L 4.6875 6.496094 Z M 5 3.671875 L 5.308594 4.632812 L 4.496094 4.039062 L 5.507812 4.039062 L 4.6875 4.632812 Z M 3.902344 8.324219 L 4.21875 9.289062 L 3.398438 8.691406 L 4.410156 8.691406 L 3.589844 9.289062 Z M 3.902344 6.464844 L 4.21875 7.425781 L 3.398438 6.832031 L 4.410156 6.832031 L 3.589844 7.425781 Z M 3.902344 4.601562 L 4.21875 5.5625 L 3.398438 4.96875 L 4.410156 4.96875 L 3.589844 5.5625 Z M 2.808594 9.257812 L 3.121094 10.21875 L 2.300781 9.625 L 3.316406 9.625 L 2.492188 10.21875 Z M 2.808594 7.394531 L 3.121094 8.355469 L 2.300781 7.761719 L 3.316406 7.761719 L 2.492188 8.355469 Z M 2.8125 5.546875 L 3.121094 6.496094 L 2.519531 6.058594 L 2.605469 5.898438 L 3.316406 5.898438 L 2.492188 6.496094 L 2.789062 5.585938 Z M 1.714844 8.324219 L 2.023438 9.289062 L 1.609375 8.984375 L 1.589844 9.152344 L 2.21875 8.691406 L 1.648438 8.691406 C 1.664062 8.574219 1.6875 8.457031 1.710938 8.339844 Z M 2.160156 6.832031 L 2.21875 6.832031 L 2.136719 6.890625 Z M 2.160156 6.832031 "/>
</g>
</svg>
