<svg width="24.000000" height="24.000000" viewBox="0 0 24 24" fill="none" xmlns="http://www.w3.org/2000/svg" xmlns:xlink="http://www.w3.org/1999/xlink">
	<desc>
			Created with Pixso.
	</desc>
	<defs/>
	<rect id="Regular/Headphones" width="24.000000" height="24.000000" fill="#FFFFFF" fill-opacity="0"/>
	<path id="Vector" d="M21.14 12.75L18.14 12.75C17.74 12.75 17.36 12.9 17.08 13.18C16.79 13.47 16.64 13.85 16.64 14.25L16.64 18C16.64 18.39 16.79 18.77 17.08 19.06C17.36 19.34 17.74 19.5 18.14 19.5L19.64 19.5C20.03 19.5 20.42 19.34 20.7 19.06C20.98 18.77 21.14 18.39 21.14 18L21.14 12.75C21.14 11.56 20.9 10.38 20.44 9.28C19.99 8.19 19.32 7.19 18.47 6.35C17.63 5.52 16.63 4.86 15.53 4.41C14.43 3.96 13.25 3.74 12.06 3.75C10.87 3.74 9.7 3.96 8.6 4.41C7.5 4.86 6.5 5.52 5.65 6.36C4.81 7.19 4.14 8.19 3.69 9.29C3.23 10.38 2.99 11.56 3 12.75L3 18C3 18.39 3.15 18.77 3.43 19.06C3.72 19.34 4.1 19.5 4.5 19.5L6 19.5C6.39 19.5 6.77 19.34 7.06 19.06C7.34 18.77 7.5 18.39 7.5 18L7.5 14.25C7.5 13.85 7.34 13.47 7.06 13.18C6.77 12.9 6.39 12.75 6 12.75L3 " stroke="#5F6C72" stroke-opacity="1.000000" stroke-width="1.500000" stroke-linejoin="round"/>
</svg>
