<svg width="16.000000" height="16.000000" viewBox="0 0 16 16" fill="none" xmlns="http://www.w3.org/2000/svg" xmlns:xlink="http://www.w3.org/1999/xlink">
	<desc>
			Created with Pixso.
	</desc>
	<defs/>
	<rect id="Duotone/X" width="16.000000" height="16.000000" fill="#FFFFFF" fill-opacity="0"/>
	<path id="Vector" d="M11.96 2.99L11.96 2.96C12.26 2.67 12.73 2.67 13.03 2.96C13.32 3.26 13.32 3.73 13.03 4.03L13 4.03L11.96 2.99ZM4.03 13L4.03 13.03C3.73 13.32 3.26 13.32 2.96 13.03C2.67 12.73 2.67 12.26 2.96 11.96L2.99 11.96L4.03 13Z" fill="currentColor" fill-opacity="1.000000" fill-rule="nonzero"/>
	<path id="Vector" d="M12.5 3.5L3.5 12.5" stroke="currentColor" stroke-opacity="1.000000" stroke-width="1.500000" stroke-linejoin="round" stroke-linecap="round"/>
	<path id="Vector" d="M13 11.96L13.03 11.96C13.32 12.26 13.32 12.73 13.03 13.03C12.73 13.32 12.26 13.32 11.96 13.03L11.96 13L13 11.96ZM2.99 4.03L2.96 4.03C2.67 3.73 2.67 3.26 2.96 2.96C3.26 2.67 3.73 2.67 4.03 2.96L4.03 2.99L2.99 4.03Z" fill="currentColor" fill-opacity="1.000000" fill-rule="nonzero"/>
	<path id="Vector" d="M12.5 12.5L3.5 3.5" stroke="currentColor" stroke-opacity="1.000000" stroke-width="1.500000" stroke-linejoin="round" stroke-linecap="round"/>
</svg>
