<svg width="96.000000" height="96.000000" viewBox="0 0 96 96" fill="none" xmlns="http://www.w3.org/2000/svg" xmlns:xlink="http://www.w3.org/1999/xlink">
	<desc>
			Created with Pixso.
	</desc>
	<defs/>
	<rect id="Icon" rx="4.000000" width="96.000000" height="96.000000" fill="#EAF6FE" fill-opacity="1.000000"/>
	<rect id="Duotone/PhoneCall" width="48.000000" height="48.000000" transform="translate(24.000000 24.000000)" fill="#FFFFFF" fill-opacity="0"/>
	<g opacity="0.200000">
		<path id="Vector" d="M41.34 47.4C42.88 50.58 45.46 53.15 48.65 54.69C48.89 54.8 49.15 54.85 49.41 54.83C49.67 54.81 49.92 54.72 50.13 54.58L54.82 51.44C55.03 51.3 55.27 51.22 55.52 51.2C55.76 51.17 56.02 51.21 56.25 51.31L65.02 55.08C65.32 55.21 65.57 55.43 65.73 55.71C65.9 55.99 65.96 56.32 65.92 56.64C65.64 58.81 64.58 60.8 62.94 62.25C61.3 63.7 59.18 64.5 57 64.5C50.23 64.5 43.75 61.81 38.96 57.03C34.18 52.24 31.5 45.76 31.5 39C31.5 36.81 32.29 34.69 33.74 33.05C35.19 31.41 37.18 30.35 39.35 30.07C39.67 30.03 40 30.09 40.28 30.26C40.56 30.42 40.78 30.67 40.91 30.97L44.68 39.76C44.77 39.99 44.82 40.24 44.8 40.48C44.78 40.73 44.7 40.96 44.56 41.17L41.43 45.93C41.29 46.15 41.21 46.4 41.19 46.65C41.18 46.91 41.23 47.16 41.34 47.4Z" fill="#2DA5F3" fill-opacity="1.000000" fill-rule="nonzero"/>
	</g>
	<path id="Vector" d="M48.65 54.69C48.89 54.8 49.15 54.85 49.41 54.83C49.67 54.81 49.92 54.72 50.13 54.58L54.82 51.44C55.03 51.3 55.27 51.22 55.52 51.2C55.76 51.17 56.02 51.21 56.25 51.31L65.02 55.08C65.32 55.21 65.57 55.43 65.73 55.71C65.9 55.99 65.96 56.32 65.92 56.64C65.64 58.81 64.58 60.8 62.94 62.25C61.3 63.7 59.18 64.5 57 64.5C50.23 64.5 43.75 61.81 38.96 57.03C34.18 52.24 31.5 45.76 31.5 39C31.5 36.81 32.29 34.69 33.74 33.05C35.19 31.41 37.18 30.35 39.35 30.07C39.67 30.03 40 30.09 40.28 30.26C40.56 30.42 40.78 30.67 40.91 30.97L44.68 39.76C44.77 39.99 44.82 40.24 44.8 40.48C44.78 40.73 44.7 40.96 44.56 41.17L41.43 45.93C41.29 46.15 41.21 46.4 41.19 46.65C41.18 46.91 41.23 47.16 41.34 47.4C42.88 50.58 45.46 53.15 48.65 54.69Z" stroke="#2DA5F3" stroke-opacity="1.000000" stroke-width="3.000000" stroke-linejoin="round"/>
	<path id="Vector" d="M53.88 31.5C56.43 32.18 58.75 33.52 60.61 35.38C62.47 37.24 63.81 39.56 64.5 42.11L53.88 31.5ZM53.52 32.93L53.49 32.94C52.68 32.73 52.22 31.92 52.43 31.11C52.65 30.3 53.46 29.83 54.27 30.05L54.28 30.07L53.52 32.93ZM65.92 41.7L65.94 41.72C66.16 42.53 65.69 43.34 64.88 43.56C64.07 43.77 63.26 43.31 63.05 42.5L63.06 42.47L65.92 41.7Z" fill="#2DA5F3" fill-opacity="1.000000" fill-rule="nonzero"/>
	<path id="Vector" d="M53.88 31.5C56.43 32.18 58.75 33.52 60.61 35.38C62.47 37.24 63.81 39.56 64.5 42.11" stroke="#2DA5F3" stroke-opacity="1.000000" stroke-width="3.000000" stroke-linejoin="round" stroke-linecap="round"/>
	<path id="Vector" d="M52.33 37.29C53.86 37.69 55.25 38.5 56.37 39.62C57.49 40.74 58.3 42.13 58.7 43.66L52.33 37.29ZM51.97 38.72L51.94 38.74C51.13 38.52 50.66 37.72 50.88 36.9C51.09 36.09 51.9 35.62 52.71 35.84L52.73 35.86L51.97 38.72ZM60.13 43.26L60.15 43.28C60.37 44.09 59.9 44.9 59.09 45.11C58.27 45.33 57.47 44.86 57.25 44.05L57.27 44.02L60.13 43.26Z" fill="#2DA5F3" fill-opacity="1.000000" fill-rule="nonzero"/>
	<path id="Vector" d="M52.33 37.29C53.86 37.69 55.25 38.5 56.37 39.62C57.49 40.74 58.3 42.13 58.7 43.66" stroke="#2DA5F3" stroke-opacity="1.000000" stroke-width="3.000000" stroke-linejoin="round" stroke-linecap="round"/>
</svg>
