<svg width="96.000000" height="96.000000" viewBox="0 0 96 96" fill="none" xmlns="http://www.w3.org/2000/svg" xmlns:xlink="http://www.w3.org/1999/xlink">
	<desc>
			Created with Pixso.
	</desc>
	<defs/>
	<rect id="Icon" rx="4.000000" width="96.000000" height="96.000000" fill="#EAF7E9" fill-opacity="1.000000"/>
	<rect id="Duotone/ChatCircleDots" width="48.000000" height="48.000000" transform="translate(24.000000 24.000000)" fill="#FFFFFF" fill-opacity="0"/>
	<g opacity="0.200000">
		<path id="Vector" d="M32.51 57.18C30.27 53.41 29.49 48.96 30.31 44.66C31.13 40.35 33.49 36.5 36.95 33.81C40.41 31.12 44.73 29.79 49.1 30.07C53.47 30.34 57.59 32.2 60.69 35.3C63.79 38.4 65.65 42.52 65.92 46.89C66.2 51.26 64.87 55.58 62.18 59.04C59.49 62.5 55.64 64.86 51.33 65.68C47.03 66.5 42.58 65.72 38.81 63.48L32.58 65.25C32.33 65.32 32.06 65.32 31.8 65.26C31.54 65.19 31.31 65.06 31.12 64.87C30.93 64.68 30.8 64.45 30.73 64.19C30.67 63.93 30.67 63.66 30.75 63.41L32.51 57.18Z" fill="#2DB324" fill-opacity="1.000000" fill-rule="nonzero"/>
	</g>
	<path id="Vector" d="M30.31 44.66C31.13 40.35 33.49 36.5 36.95 33.81C40.41 31.12 44.73 29.79 49.1 30.07C53.47 30.34 57.59 32.2 60.69 35.3C63.79 38.4 65.65 42.52 65.92 46.89C66.2 51.26 64.87 55.58 62.18 59.04C59.49 62.5 55.64 64.86 51.33 65.68C47.03 66.5 42.58 65.72 38.81 63.48L32.58 65.25C32.33 65.32 32.06 65.32 31.8 65.26C31.54 65.19 31.31 65.06 31.12 64.87C30.93 64.68 30.8 64.45 30.73 64.19C30.67 63.93 30.67 63.66 30.75 63.41L32.51 57.18C30.27 53.41 29.49 48.96 30.31 44.66Z" stroke="#2DB324" stroke-opacity="1.000000" stroke-width="3.000000" stroke-linejoin="round"/>
	<path id="Vector" d="M50.25 48C50.25 49.24 49.24 50.25 48 50.25C46.75 50.25 45.75 49.24 45.75 48C45.75 46.75 46.75 45.75 48 45.75C49.24 45.75 50.25 46.75 50.25 48Z" fill="#2DB324" fill-opacity="1.000000" fill-rule="evenodd"/>
	<path id="Vector" d="M41.25 48C41.25 49.24 40.24 50.25 39 50.25C37.75 50.25 36.75 49.24 36.75 48C36.75 46.75 37.75 45.75 39 45.75C40.24 45.75 41.25 46.75 41.25 48Z" fill="#2DB324" fill-opacity="1.000000" fill-rule="evenodd"/>
	<path id="Vector" d="M59.25 48C59.25 49.24 58.24 50.25 57 50.25C55.75 50.25 54.75 49.24 54.75 48C54.75 46.75 55.75 45.75 57 45.75C58.24 45.75 59.25 46.75 59.25 48Z" fill="#2DB324" fill-opacity="1.000000" fill-rule="evenodd"/>
</svg>
