<svg width="32.000000" height="32.000000" viewBox="0 0 32 32" fill="none" xmlns="http://www.w3.org/2000/svg" xmlns:xlink="http://www.w3.org/1999/xlink">
	<desc>
			Created with Pixso.
	</desc>
	<defs/>
	<rect id="Duotone/CreditCard" width="32.000000" height="32.000000" fill="#FFFFFF" fill-opacity="0"/>
	<g opacity="0.200000">
		<path id="Vector" d="M3 12.11L29 12.11L29 24C29 24.26 28.89 24.51 28.7 24.7C28.51 24.89 28.26 25 28 25L4 25C3.73 25 3.48 24.89 3.29 24.7C3.1 24.51 3 24.26 3 24L3 12.11Z" fill="#FA8232" fill-opacity="1.000000" fill-rule="nonzero"/>
	</g>
	<path id="Vector" d="M28 7C28.55 7 29 7.44 29 8L29 24C29 24.55 28.55 25 28 25L4 25C3.44 25 3 24.55 3 24L3 8C3 7.44 3.44 7 4 7L28 7Z" stroke="#FA8232" stroke-opacity="1.000000" stroke-width="2.000000" stroke-linejoin="round"/>
	<path id="Vector" d="M21 21L25 21" stroke="#FA8232" stroke-opacity="1.000000" stroke-width="2.000000" stroke-linejoin="round" stroke-linecap="round"/>
	<path id="Vector" d="M15 21L17 21" stroke="#FA8232" stroke-opacity="1.000000" stroke-width="2.000000" stroke-linejoin="round" stroke-linecap="round"/>
	<path id="Vector" d="M3 12.11L29 12.11" stroke="#FA8232" stroke-opacity="1.000000" stroke-width="2.000000" stroke-linejoin="round" stroke-linecap="round"/>
</svg>
