<svg width="32.000000" height="32.000000" viewBox="0 0 32 32" fill="none" xmlns="http://www.w3.org/2000/svg" xmlns:xlink="http://www.w3.org/1999/xlink">
	<desc>
			Created with Pixso.
	</desc>
	<defs/>
	<rect id="Duotone/Notepad" width="32.000000" height="32.000000" fill="#FFFFFF" fill-opacity="0"/>
	<g opacity="0.200000">
		<path id="Vector" d="M7 5L25 5C25.26 5 25.51 5.1 25.7 5.29C25.89 5.48 26 5.73 26 6L26 25C26 25.79 25.68 26.55 25.12 27.12C24.55 27.68 23.79 28 23 28L9 28C8.2 28 7.44 27.68 6.87 27.12C6.31 26.55 6 25.79 6 25L6 6C6 5.73 6.1 5.48 6.29 5.29C6.48 5.1 6.73 5 7 5Z" fill="#FA8232" fill-opacity="1.000000" fill-rule="nonzero"/>
	</g>
	<path id="Vector" d="M12.01 16.98L12 17C11.43 17 11 16.56 11 16C11 15.43 11.43 15 12 15L12.01 15.01L12.01 16.98ZM19.98 15.01L20 15C20.56 15 21 15.43 21 16C21 16.56 20.56 17 20 17L19.98 16.98L19.98 15.01Z" fill="#FA8232" fill-opacity="1.000000" fill-rule="nonzero"/>
	<path id="Vector" d="M12 16L20 16" stroke="#FA8232" stroke-opacity="1.000000" stroke-width="2.000000" stroke-linejoin="round" stroke-linecap="round"/>
	<path id="Vector" d="M12 20L20 20" stroke="#FA8232" stroke-opacity="1.000000" stroke-width="2.000000" stroke-linejoin="round" stroke-linecap="round"/>
	<path id="Vector" d="M25 5C25.26 5 25.51 5.1 25.7 5.29C25.89 5.48 26 5.73 26 6L26 25C26 25.79 25.68 26.55 25.12 27.12C24.55 27.68 23.79 28 23 28L9 28C8.2 28 7.44 27.68 6.87 27.12C6.31 26.55 6 25.79 6 25L6 6C6 5.73 6.1 5.48 6.29 5.29C6.48 5.1 6.73 5 7 5L25 5Z" stroke="#FA8232" stroke-opacity="1.000000" stroke-width="2.000000" stroke-linejoin="round"/>
	<path id="Vector" d="M10 3L14 3" stroke="#FA8232" stroke-opacity="1.000000" stroke-width="2.000000" stroke-linejoin="round" stroke-linecap="round"/>
	<path id="Vector" d="M16 3L20 3" stroke="#FA8232" stroke-opacity="1.000000" stroke-width="2.000000" stroke-linejoin="round" stroke-linecap="round"/>
	<path id="Vector" d="M22 3L26 3" stroke="#FA8232" stroke-opacity="1.000000" stroke-width="2.000000" stroke-linejoin="round" stroke-linecap="round"/>
</svg>
