<svg width="32.000000" height="32.000000" viewBox="0 0 32 32" fill="none" xmlns="http://www.w3.org/2000/svg" xmlns:xlink="http://www.w3.org/1999/xlink">
	<desc>
			Created with Pixso.
	</desc>
	<defs/>
	<rect id="Duotone/Storefront" width="32.000000" height="32.000000" fill="#FFFFFF" fill-opacity="0"/>
	<g opacity="0.200000">
		<path id="Vector" d="M12 12L12 14C12 15.06 11.57 16.07 10.82 16.82C10.07 17.57 9.06 18 8 18C6.93 18 5.92 17.57 5.17 16.82C4.42 16.07 4 15.06 4 14L4 12L12 12Z" fill="#FA8232" fill-opacity="1.000000" fill-rule="nonzero"/>
	</g>
	<g opacity="0.200000">
		<path id="Vector" d="M28 12L28 14C28 15.06 27.57 16.07 26.82 16.82C26.07 17.57 25.06 18 24 18C22.93 18 21.92 17.57 21.17 16.82C20.42 16.07 20 15.06 20 14L20 12L28 12Z" fill="#FA8232" fill-opacity="1.000000" fill-rule="nonzero"/>
	</g>
	<path id="Vector" d="M6 17.44L6 26C6 26.26 6.1 26.51 6.29 26.7C6.48 26.89 6.73 27 7 27L25 27C25.26 27 25.51 26.89 25.7 26.7C25.89 26.51 26 26.26 26 26L26 17.44" stroke="#FA8232" stroke-opacity="1.000000" stroke-width="2.000000" stroke-linejoin="round" stroke-linecap="round"/>
	<path id="Vector" d="M25.25 5C25.46 5 25.67 5.07 25.85 5.2C26.02 5.33 26.15 5.51 26.21 5.72L28 12L4 12L5.78 5.72C5.84 5.51 5.97 5.33 6.14 5.2C6.32 5.07 6.53 5 6.75 5L25.25 5Z" stroke="#FA8232" stroke-opacity="1.000000" stroke-width="2.000000" stroke-linejoin="round"/>
	<path id="Vector" d="M12 12L12 14C12 15.06 11.57 16.07 10.82 16.82C10.07 17.57 9.06 18 8 18C6.93 18 5.92 17.57 5.17 16.82C4.42 16.07 4 15.06 4 14L4 12" stroke="#FA8232" stroke-opacity="1.000000" stroke-width="2.000000" stroke-linejoin="round" stroke-linecap="round"/>
	<path id="Vector" d="M20 12L20 14C20 15.06 19.57 16.07 18.82 16.82C18.07 17.57 17.06 18 16 18C14.93 18 13.92 17.57 13.17 16.82C12.42 16.07 12 15.06 12 14L12 12" stroke="#FA8232" stroke-opacity="1.000000" stroke-width="2.000000" stroke-linejoin="round" stroke-linecap="round"/>
	<path id="Vector" d="M28 12L28 14C28 15.06 27.57 16.07 26.82 16.82C26.07 17.57 25.06 18 24 18C22.93 18 21.92 17.57 21.17 16.82C20.42 16.07 20 15.06 20 14L20 12" stroke="#FA8232" stroke-opacity="1.000000" stroke-width="2.000000" stroke-linejoin="round" stroke-linecap="round"/>
</svg>
