<svg width="24.000000" height="24.000000" viewBox="0 0 24 24" fill="none" xmlns="http://www.w3.org/2000/svg" xmlns:xlink="http://www.w3.org/1999/xlink">
	<desc>
			Created with Pixso.
	</desc>
	<defs/>
	<rect id="Regular/ChatCircleDots" width="24.000000" height="24.000000" fill="#FFFFFF" fill-opacity="0"/>
	<path id="Vector" d="M3.15 10.33C3.56 8.17 4.74 6.25 6.47 4.9C8.2 3.56 10.36 2.89 12.55 3.03C14.73 3.17 16.79 4.1 18.34 5.65C19.89 7.2 20.82 9.26 20.96 11.44C21.1 13.63 20.43 15.79 19.09 17.52C17.74 19.25 15.82 20.43 13.66 20.84C11.51 21.25 9.29 20.86 7.4 19.74L4.29 20.62C4.16 20.66 4.03 20.66 3.9 20.63C3.77 20.59 3.65 20.53 3.56 20.43C3.46 20.34 3.4 20.22 3.36 20.09C3.33 19.96 3.33 19.83 3.37 19.7L4.25 16.59C3.13 14.71 2.74 12.48 3.15 10.33Z" stroke="#FA8232" stroke-opacity="1.000000" stroke-width="1.500000" stroke-linejoin="round"/>
	<path id="Vector" d="M13.12 12C13.12 12.62 12.62 13.12 12 13.12C11.37 13.12 10.87 12.62 10.87 12C10.87 11.37 11.37 10.87 12 10.87C12.62 10.87 13.12 11.37 13.12 12Z" fill="#FA8232" fill-opacity="1.000000" fill-rule="evenodd"/>
	<path id="Vector" d="M8.62 12C8.62 12.62 8.12 13.12 7.5 13.12C6.87 13.12 6.37 12.62 6.37 12C6.37 11.37 6.87 10.87 7.5 10.87C8.12 10.87 8.62 11.37 8.62 12Z" fill="#FA8232" fill-opacity="1.000000" fill-rule="evenodd"/>
	<path id="Vector" d="M17.62 12C17.62 12.62 17.12 13.12 16.5 13.12C15.87 13.12 15.37 12.62 15.37 12C15.37 11.37 15.87 10.87 16.5 10.87C17.12 10.87 17.62 11.37 17.62 12Z" fill="#FA8232" fill-opacity="1.000000" fill-rule="evenodd"/>
</svg>
