<svg width="24.000000" height="24.000000" viewBox="0 0 24 24" fill="none" xmlns="http://www.w3.org/2000/svg" xmlns:xlink="http://www.w3.org/1999/xlink">
	<desc>
			Created with Pixso.
	</desc>
	<defs/>
	<rect id="Regular/UserCircle" width="24.000000" height="24.000000" fill="#FFFFFF" fill-opacity="0"/>
	<path id="Vector" d="M12 21C7.02 21 3 16.97 3 12C3 7.02 7.02 3 12 3C16.97 3 21 7.02 21 12C21 16.97 16.97 21 12 21Z" stroke="#FA8232" stroke-opacity="1.000000" stroke-width="1.500000" stroke-linejoin="round"/>
	<path id="Vector" d="M12 15C9.92 15 8.25 13.32 8.25 11.25C8.25 9.17 9.92 7.5 12 7.5C14.07 7.5 15.75 9.17 15.75 11.25C15.75 13.32 14.07 15 12 15Z" stroke="#FA8232" stroke-opacity="1.000000" stroke-width="1.500000" stroke-linejoin="round"/>
	<path id="Vector" d="M5.98 18.69C6.54 17.58 7.4 16.64 8.46 15.99C9.53 15.34 10.75 14.99 12 14.99C13.24 14.99 14.46 15.34 15.53 15.99C16.59 16.64 17.45 17.58 18.01 " stroke="#FA8232" stroke-opacity="1.000000" stroke-width="1.500000" stroke-linejoin="round" stroke-linecap="round"/>
</svg>
