<svg width="24.000000" height="24.000000" viewBox="0 0 24 24" fill="none" xmlns="http://www.w3.org/2000/svg" xmlns:xlink="http://www.w3.org/1999/xlink">
	<desc>
			Created with Pixso.
	</desc>
	<defs/>
	<rect id="Regular/Handshake" width="24.000000" height="24.000000" fill="#FFFFFF" fill-opacity="0"/>
	<path id="Vector" d="M20.25 12.57L17.25 6.83L19.59 5.66C19.76 5.57 19.97 5.55 20.15 5.61C20.34 5.67 20.49 5.8 20.58 5.98L22.89 10.39C22.94 10.48 22.96 10.58 22.97 10.68C22.98 10.78 22.97 10.88 22.94 10.97C22.91 11.07 22.86 11.16 22.79 11.23C22.73 11.31 22.65 11.37 22.56 11.41L20.25 12.57Z" stroke="#FA8232" stroke-opacity="1.000000" stroke-width="1.500000" stroke-linejoin="round"/>
	<path id="Vector" d="M1.43 11.31C1.34 11.27 1.26 11.21 1.2 11.13C1.13 11.06 1.08 10.97 1.05 10.87C1.02 10.78 1.01 10.68 1.02 10.58C1.03 10.48 1.05 10.39 1.1 10.3L3.41 5.88C3.5 5.71 3.65 5.58 3.84 5.52C4.02 5.45 4.23 5.47 4.4 5.55L6.75 6.73L3.75 12.47L1.43 11.31Z" stroke="#FA8232" stroke-opacity="1.000000" stroke-width="1.500000" stroke-linejoin="round"/>
	<path id="Vector" d="M20.25 12.57L18.75 14.33L15.3 17.78C15.2 17.87 15.09 17.93 14.96 17.97C14.84 18 14.71 18 14.58 17.98L9.14 16.62C9.05 16.59 8.95 16.54 8.87 16.48L3.75 " stroke="#FA8232" stroke-opacity="1.000000" stroke-width="1.500000" stroke-linejoin="round" stroke-linecap="round"/>
	<path id="Vector" d="M18.75 14.33L14.62 11.33L13.42 12.23C12.9 12.62 12.27 12.83 11.62 12.83C10.97 12.83 10.34 12.62 9.82 12.23L9.31 11.84C9.23 11.78 9.16 11.7 9.11 11.6C9.05 11.51 9.02 11.4 9.02 11.3C9.01 11.19 9.02 11.08 9.06 10.98C9.1 10.88 9.15 10.79 9.23 10.71L12.9 7.04C12.97 6.98 13.06 6.92 13.15 6.88C13.24 6.85 13.33 6.83 13.43 6.83L17.25 " stroke="#FA8232" stroke-opacity="1.000000" stroke-width="1.500000" stroke-linejoin="round" stroke-linecap="round"/>
	<path id="Vector" d="M6.8 6.73L11.61 5.32C11.78 5.27 11.96 5.28 12.13 5.36L15.37 " stroke="#FA8232" stroke-opacity="1.000000" stroke-width="1.500000" stroke-linejoin="round" stroke-linecap="round"/>
	<path id="Vector" d="M10.5 19.95L7.67 19.24C7.56 19.22 7.45 19.16 7.36 19.08L5.25 " stroke="#FA8232" stroke-opacity="1.000000" stroke-width="1.500000" stroke-linejoin="round" stroke-linecap="round"/>
</svg>
