<svg width="24.000000" height="24.000000" viewBox="0 0 24 24" fill="none" xmlns="http://www.w3.org/2000/svg" xmlns:xlink="http://www.w3.org/1999/xlink">
	<desc>
			Created with Pixso.
	</desc>
	<defs/>
	<rect id="Regular/Medal" width="24.000000" height="24.000000" fill="#FFFFFF" fill-opacity="0"/>
	<path id="Vector" d="M12 16.5C7.85 16.5 4.5 13.14 4.5 9C4.5 4.85 7.85 1.5 12 1.5C16.14 1.5 19.5 4.85 19.5 9C19.5 13.14 16.14 16.5 12 16.5Z" stroke="#FA8232" stroke-opacity="1.000000" stroke-width="1.500000" stroke-linejoin="round"/>
	<path id="Vector" d="M12 13.5C9.51 13.5 7.5 11.48 7.5 9C7.5 6.51 9.51 4.5 12 4.5C14.48 4.5 16.5 6.51 16.5 9C16.5 11.48 14.48 13.5 12 13.5Z" stroke="#FA8232" stroke-opacity="1.000000" stroke-width="1.500000" stroke-linejoin="round"/>
	<path id="Vector" d="M16.5 15L16.5 22.5L12 20.25L7.5 22.5L7.5 " stroke="#FA8232" stroke-opacity="1.000000" stroke-width="1.500000" stroke-linejoin="round" stroke-linecap="round"/>
</svg>
