<svg width="24.000000" height="24.000000" viewBox="0 0 24 24" fill="none" xmlns="http://www.w3.org/2000/svg" xmlns:xlink="http://www.w3.org/1999/xlink">
	<desc>
			Created with Pixso.
	</desc>
	<defs/>
	<rect id="Regular/Truck" width="24.000000" height="24.000000" fill="#FFFFFF" fill-opacity="0"/>
	<path id="Vector" d="M16.5 7.5L20.49 7.5C20.64 7.49 20.78 7.54 20.91 7.62C21.03 7.71 21.13 7.83 21.18 7.96L22.5 " stroke="#FA8232" stroke-opacity="1.000000" stroke-width="1.500000" stroke-linejoin="round" stroke-linecap="round"/>
	<path id="Vector" d="M1.5 13.5L16.5 " stroke="#FA8232" stroke-opacity="1.000000" stroke-width="1.500000" stroke-linejoin="round" stroke-linecap="round"/>
	<path id="Vector" d="M17.62 20.25C16.38 20.25 15.37 19.24 15.37 18C15.37 16.75 16.38 15.75 17.62 15.75C18.86 15.75 19.87 16.75 19.87 18C19.87 19.24 18.86 20.25 17.62 20.25Z" stroke="#FA8232" stroke-opacity="1.000000" stroke-width="1.500000"/>
	<path id="Vector" d="M6.37 20.25C5.13 20.25 4.12 19.24 4.12 18C4.12 16.75 5.13 15.75 6.37 15.75C7.61 15.75 8.62 16.75 8.62 18C8.62 19.24 7.61 20.25 6.37 20.25Z" stroke="#FA8232" stroke-opacity="1.000000" stroke-width="1.500000"/>
	<path id="Vector" d="M15.37 18L8.62 " stroke="#FA8232" stroke-opacity="1.000000" stroke-width="1.500000" stroke-linejoin="round" stroke-linecap="round"/>
	<path id="Vector" d="M4.12 18L2.25 18C2.05 18 1.86 17.92 1.71 17.78C1.57 17.63 1.5 17.44 1.5 17.25L1.5 6.75C1.5 6.55 1.57 6.36 1.71 6.21C1.86 6.07 2.05 6 2.25 6L16.5 6L16.5 " stroke="#FA8232" stroke-opacity="1.000000" stroke-width="1.500000" stroke-linejoin="round" stroke-linecap="round"/>
	<path id="Vector" d="M16.5 11.25L22.5 11.25L22.5 17.25C22.5 17.44 22.42 17.63 22.28 17.78C22.13 17.92 21.94 18 21.75 18L19.87 " stroke="#FA8232" stroke-opacity="1.000000" stroke-width="1.500000" stroke-linejoin="round" stroke-linecap="round"/>
</svg>
