<svg width="24.000000" height="24.000000" viewBox="0 0 24 24" fill="none" xmlns="http://www.w3.org/2000/svg" xmlns:xlink="http://www.w3.org/1999/xlink">
	<desc>
			Created with Pixso.
	</desc>
	<defs/>
	<rect id="Property 1=None" width="24.000000" height="24.000000" fill="#FFFFFF" fill-opacity="0"/>
	<path id="Vector" d="M9 20.25C9 21.07 8.32 21.75 7.5 21.75C6.67 21.75 6 21.07 6 20.25C6 19.42 6.67 18.75 7.5 18.75C8.32 18.75 9 19.42 9 20.25Z" fill="#191C1F" fill-opacity="1.000000" fill-rule="evenodd"/>
	<path id="Vector" d="M7.5 21.75C6.67 21.75 6 21.07 6 20.25C6 19.42 6.67 18.75 7.5 18.75C8.32 18.75 9 19.42 9 20.25C9 21.07 8.32 21.75 7.5 21.75Z" stroke="#191C1F" stroke-opacity="1.000000" stroke-width="1.000000"/>
	<path id="Vector" d="M18.75 20.25C18.75 21.07 18.07 21.75 17.25 21.75C16.42 21.75 15.75 21.07 15.75 20.25C15.75 19.42 16.42 18.75 17.25 18.75C18.07 18.75 18.75 19.42 18.75 20.25Z" fill="#191C1F" fill-opacity="1.000000" fill-rule="evenodd"/>
	<path id="Vector" d="M3.96 6.75L20.78 6.75L18.3 15.41C18.22 15.72 18.03 16 17.77 16.2C17.51 16.39 17.19 16.5 16.86 16.5L7.88 16.5C7.55 16.5 7.23 16.39 6.97 16.2C6.71 16 6.52 15.72 6.44 15.41L3.04 3.54C3 3.38 2.9 3.24 2.77 3.15C2.64 3.05 2.48 2.99 2.32 3L0.75 " stroke="#191C1F" stroke-opacity="1.000000" stroke-width="1.500000" stroke-linejoin="round" stroke-linecap="round"/>
</svg>
