<svg width="24.000000" height="24.000000" viewBox="0 0 24 24" fill="none" xmlns="http://www.w3.org/2000/svg" xmlns:xlink="http://www.w3.org/1999/xlink">
	<desc>
			Created with Pixso.
	</desc>
	<defs/>
	<rect id="Status=False" width="24.000000" height="24.000000" fill="#FFFFFF" fill-opacity="0"/>
	<path id="Vector" d="M2.62 8.62C2.62 7.49 3.01 6.4 3.72 5.53C4.44 4.66 5.43 4.06 6.54 3.84C7.64 3.62 8.79 3.79 9.79 4.32C10.78 4.85 11.56 5.7 12 6.75C12.43 5.7 13.21 4.85 14.2 4.32C15.2 3.79 16.35 3.62 17.45 3.84C18.56 4.06 19.55 4.66 20.27 5.53C20.98 6.4 21.37 7.49 21.37 8.62C21.37 15 12 20.25 12 20.25C12 20.25 2.62 15 2.62 8.62Z" stroke="#FFFFFF" stroke-opacity="1.000000" stroke-width="1.500000" stroke-linejoin="round"/>
</svg>
